<?xml version="1.0" encoding="UTF-8"?>
<!-- Generator: Adobe Illustrator 25.4.1, SVG Export Plug-In . SVG Version: 6.00 Build 0)  -->
<svg version="1.1" id="Layer_1" xmlns="http://www.w3.org/2000/svg" xmlns:xlink="http://www.w3.org/1999/xlink" x="0px" y="0px" viewBox="0 0 983 349" style="enable-background:new 0 0 983 349;" xml:space="preserve">
<style type="text/css">
	.st0{fill:#A6A8AB;}
	.st1{fill-rule:evenodd;clip-rule:evenodd;fill:url(#SVGID_1_);}
	.st2{fill-rule:evenodd;clip-rule:evenodd;fill:url(#SVGID_00000011000862593911784140000011960240517694884248_);}
	.st3{fill-rule:evenodd;clip-rule:evenodd;fill:url(#SVGID_00000127023374764993908260000016699645508320844932_);}
	.st4{fill-rule:evenodd;clip-rule:evenodd;fill:#ED3051;}
	.st5{fill:#BBBDBF;}
	.st6{fill:#17181B;}
</style>
<g>
	<g>
		<g>
			<path class="st0" d="M316.7,274.5l-4.8,4.8l-3.9-3.9l4.8-4.8l-4.9-4.9l4.1-4.1l4.9,4.9l4.8-4.8l3.9,3.9l-4.8,4.8l4.9,4.9     l-4.1,4.1L316.7,274.5z"/>
			<path class="st0" d="M318.3,251.5l6-6l17.6,17.6l-5.8,5.8l-12.9-12.9l-2.2,2.2L318.3,251.5z"/>
		</g>
		<g>
			<g>
				<linearGradient id="SVGID_1_" gradientUnits="userSpaceOnUse" x1="31.3093" y1="173.4173" x2="199.228" y2="173.4173">
					<stop offset="0" style="stop-color:#02AF98"/>
					<stop offset="0.5" style="stop-color:#0473BA"/>
					<stop offset="1" style="stop-color:#09B15E"/>
				</linearGradient>
				<path class="st1" d="M162.8,33.9c6.7-0.4,13.5-0.2,20,0.3C115.9,48,67.4,109.3,71.5,179.3c4.2,70.2,59.7,125.4,127.7,131.1      c-6.3,1.3-13.1,2.1-19.8,2.5c-76.8,4.6-143.3-54.2-147.8-131.2C27,104.9,86,38.4,162.8,33.9"/>
				
					<linearGradient id="SVGID_00000178169436338170965390000005946538435630483879_" gradientUnits="userSpaceOnUse" x1="108.0864" y1="249.3595" x2="233.2948" y2="144.2972">
					<stop offset="0" style="stop-color:#A3CE57"/>
					<stop offset="0.95" style="stop-color:#09B15E"/>
				</linearGradient>
				<path style="fill-rule:evenodd;clip-rule:evenodd;fill:url(#SVGID_00000178169436338170965390000005946538435630483879_);" d="      M104.3,99.4c3.5-4.5,7.2-8.9,11.3-12.9c-28.4,51.5-15.4,117.6,32.5,153.9c48.2,36.5,115.3,31,157.1-10.3      c-2.7,4.9-5.8,9.8-9.5,14.5c-39.8,52.7-115.5,63.2-168.2,23.2C74.6,227.8,64.3,152.1,104.3,99.4"/>
				
					<linearGradient id="SVGID_00000130640909232661804230000007299351217503298981_" gradientUnits="userSpaceOnUse" x1="114.9031" y1="180.0902" x2="315.6539" y2="180.0902">
					<stop offset="0" style="stop-color:#F27321"/>
					<stop offset="1" style="stop-color:#FFC609"/>
				</linearGradient>
				<path style="fill-rule:evenodd;clip-rule:evenodd;fill:url(#SVGID_00000130640909232661804230000007299351217503298981_);" d="      M118.8,187.3c-1.6-4.6-2.8-9.4-3.9-14.1c23.1,43.9,75.7,65.2,123.7,48c48-17,75.2-66.9,65.3-115.5c2.1,4.2,4.1,8.6,5.9,13.2      c18.8,52.6-8.9,110.8-61.5,129.6C195.7,267.3,137.5,239.9,118.8,187.3"/>
				<path class="st4" d="M173.7,214.1c-3-1.5-5.9-3.3-8.7-5.1c32.5,10.4,68.6-4.4,84-35.9c15.4-31.4,4.8-69-23.5-88.2      c3.1,1,6.2,2.3,9.3,3.7c34.5,16.8,48.9,58.7,32.1,93.3C250.1,216.5,208.3,231,173.7,214.1"/>
			</g>
		</g>
		<g>
			<path class="st5" d="M173.9,342c-3.9,0-7.8-0.1-11.7-0.4c-94-6.3-165.4-85.9-159.1-177.5c6.3-91.6,88-161,182.1-154.7l16.8,3.4     l-17.1,0.9C93.3,7.6,13.7,75.2,7.6,164.4c-6.2,89.2,63.3,166.8,155,172.9c48.5,3.2,95.8-14.2,129.9-47.9l9.3-5.9l-6.2,9     C263.3,324.3,219.5,342,173.9,342z"/>
		</g>
	</g>
	<g>
		<path class="st6" d="M407.6,76.5h39.3v195.2h-39.3V76.5z"/>
		<path class="st6" d="M495,245.5c-17.8-19.3-26.7-43-26.7-71.3c0-28.3,8.9-52.1,26.7-71.3c17.8-19.3,40.7-28.9,68.6-28.9    c16.7,0,31.8,4.3,45.3,12.8v43.7c-12.1-12.7-27.2-19-45.3-19c-17.9,0-32,5.9-42.4,17.8c-10.4,11.9-15.6,26.9-15.6,44.9    c0,18.2,5.2,33.3,15.6,45.2c10.4,11.9,24.6,17.8,42.4,17.8c18.4,0,33.5-6.4,45.3-19.3v43.7c-14.1,8.5-29.2,12.8-45.3,12.8    C535.7,274.4,512.8,264.7,495,245.5z"/>
		<path class="st6" d="M794.2,76.5v195.2h-39.3v-80.4H671v80.4h-39.3V76.5H671v80.2h83.8V76.5H794.2z"/>
		<path class="st6" d="M899,161.6l76.3,70.6v52.6L858.6,174.1v97.6h-39.3V76.5h39.3v76.3l71.1-76.3h50.2L899,161.6z"/>
	</g>
</g>
</svg>